# xmcd
#
# Track frame offsets:
#	150
#	15577
#	33539
#	53130
#	67636
#	84676
#	99114
#	115967
#	133051
#	148820
#	163342
#	175657
#	196428
#	208846
#	225284
#	236582
#	257233
#	271577
#	286680
#	306149
#	321915
#
# Disc length: 4495 seconds
#
# Revision: 1
# Processed by: cddbd v1.5.2PL0 Copyright (c) Steve Scherf et al.
# Submitted via: audiograbber 1.83.01
#
DISCID=22118d15
DTITLE=Diversen - Ik hou van Holland 2
DYEAR=1900
DGENRE=
TTITLE0=Anouk - Nobody's wife
TTITLE1=Andre Hazes and Gerard Joling - Blijf bij mij
TTITLE2=Kid B ft Martin van der Starre - Una paloma blanca, heel de zomer lang
TTITLE3=Rob de Nijs - Jan Klaassen de trompetter
TTITLE4=Scot Fitzgerald and Yvonne Keeley - If i had words
TTITLE5=Brainpower - Dansplaat
TTITLE6=Zangeres Zonder Naam - Mexico (live)
TTITLE7=Gordon - Ik bel je zomaar even op
TTITLE8=Het Goede Doel - Eenvoud
TTITLE9=Nico Landers - Liefde in de nacht
TTITLE10=Spooky and Sue - You talk too much
TTITLE11=De Poema's - Zij maakt het verschil
TTITLE12=De Havenzangers - Aan het strand stil en verlaten
TTITLE13=The Cats - Lea
TTITLE14=Hepie and Hepie - Ik lig op mijn kussen stil te dromen
TTITLE15=Splitsing - Geef me wind en zeilen
TTITLE16=Willeke Alberti - Telkens weer
TTITLE17=Earth and Fire - Memories
TTITLE18=Gerard de Vries - Een spel kaarten
TTITLE19=New Four - Meisje ik ben een zeeman
TTITLE20=Jan Boezeroen - De fles
EXTD=
EXTT0=
EXTT1=
EXTT2=
EXTT3=
EXTT4=
EXTT5=
EXTT6=
EXTT7=
EXTT8=
EXTT9=
EXTT10=
EXTT11=
EXTT12=
EXTT13=
EXTT14=
EXTT15=
EXTT16=
EXTT17=
EXTT18=
EXTT19=
EXTT20=
PLAYORDER=
